<svg width="171" height="203" viewBox="0 0 171 203" fill="none" xmlns="http://www.w3.org/2000/svg">
<path d="M77.7686 7.22901L72.5326 7.53435H72.1235L66.5602 8.22137L61.6514 8.9084L56.4971 9.74809L51.1793 10.7405L46.5159 12.0382L41.8525 13.4885L37.271 15.1679L32.853 17L28.6806 18.9847L27.4674 19.7099C24.7913 21.3095 22.2707 23.1558 19.9386 25.2248L18.4539 26.542L14.445 30.8931L12.2931 33.7042C11.276 35.0328 10.3976 36.462 9.67171 37.9695C8.71311 39.9603 8.02811 42.0716 7.63535 44.246L7.4877 45.0634C7.16322 46.8598 7 48.6816 7 50.507V55.8527C7 58.6483 7.23446 61.4389 7.70091 64.1953L8.2272 67.3053L10.2725 74.7099L11.1319 77.2756C12.1926 80.4427 13.568 83.4955 15.2374 86.3883L17.3085 89.9771L20.5682 96.3416C21.3393 97.8472 21.9975 99.4079 22.5375 101.011L22.599 101.194C23.8082 104.783 24.3914 108.554 24.3232 112.342C24.2829 114.576 24.0161 116.801 23.5269 118.982L22.79 122.267L22.3077 124.77C21.7576 127.625 21.4576 130.523 21.4111 133.43L21.3174 139.29L21.7264 146.313L22.8718 152.954L24.999 160.511L27.5352 166.618L30.4805 171.809L33.5076 176.008L34.2036 176.852C35.9185 178.932 37.7987 180.87 39.826 182.647L42.1798 184.71L43.3111 185.473C46.0951 187.351 49.0611 188.944 52.1644 190.228L55.4336 191.58L62.3877 193.565L68.6873 195.092L74.7415 195.779H80.5503H86.359H94.1313L102.149 195.092L110.085 193.565L118.348 190.893L124.32 188.298L125.427 187.708C128.499 186.07 131.391 184.116 134.057 181.877L135.774 180.435C138.057 178.254 140.078 175.815 141.797 173.166L142.974 171.351L145.51 167.076L147.146 163.336C147.909 161.71 148.543 160.027 149.044 158.302L149.355 157.229L150.255 152.878L150.992 149.137L151.401 145.473V141.962V138.186C151.401 136.583 151.281 134.983 151.043 133.398L150.848 132.105C150.78 131.654 150.766 131.497 150.643 131.057C150.217 129.533 149.66 127.676 149.143 126.18L148.292 123.718L147.005 119.909C146.284 117.775 145.836 115.558 145.671 113.311L145.633 112.789C145.551 111.68 145.561 110.565 145.661 109.457C145.832 107.574 146.27 105.712 146.951 103.948C147.46 102.633 148.105 101.366 148.872 100.183L156.622 88.2185C158.102 85.9349 159.374 83.5235 160.423 81.0131C161.496 78.4449 162.332 75.7837 162.92 73.063L162.944 72.9552C163.646 69.7068 164 66.3928 164 63.0693V61.6565L163.509 53.7939L163.391 52.9751C163.088 50.8773 162.636 48.804 162.036 46.771L160.809 43.0305L159.337 39.6718L157.864 36.6947L155.9 33.6412L153.61 30.8168L150.583 27.687L147.392 24.7863L144.119 22.1145L140.11 19.3664L135.283 16.542L130.211 14.3282L125.384 12.4198L119.248 10.7405L112.376 9.29008L106.649 8.22137L101.822 7.53435L96.7493 7.22901L89.6316 7H83.4138L77.7686 7.22901Z" stroke="black" stroke-width="13"/>
<path d="M77.7686 7.22901L72.5326 7.53435H72.1235L66.5602 8.22137L61.6514 8.9084L56.4971 9.74809L51.1793 10.7405L46.5159 12.0382L41.8525 13.4885L37.271 15.1679L32.8531 17L28.6806 18.9847L27.4674 19.7099C24.7913 21.3095 22.2707 23.1558 19.9386 25.2248L18.4539 26.542L14.445 30.8931L12.2931 33.7042C11.276 35.0328 10.3976 36.462 9.6717 37.9695C8.71311 39.9603 8.02811 42.0716 7.63535 44.246L7.4877 45.0634C7.16322 46.8598 7 48.6816 7 50.507V55.8527C7 58.6483 7.23446 61.4389 7.70091 64.1953L8.2272 67.3053L10.2725 74.7099L11.1319 77.2757C12.1926 80.4427 13.568 83.4955 15.2374 86.3883L17.3085 89.9771L20.5682 96.3416C21.3393 97.8472 21.9975 99.4079 22.5375 101.011L22.599 101.194C23.8082 104.783 24.3914 108.554 24.3232 112.342C24.2829 114.576 24.0161 116.801 23.5269 118.982L22.79 122.267L22.3077 124.77C21.7576 127.625 21.4576 130.523 21.4111 133.43L21.3174 139.29L21.7264 146.313L22.8718 152.954L24.999 160.511L27.5352 166.618L30.4805 171.809L33.5076 176.008L34.2036 176.852C35.9185 178.932 37.7987 180.87 39.826 182.647L42.1798 184.71L43.3111 185.473C46.0951 187.351 49.0611 188.944 52.1644 190.228L55.4336 191.58L62.3877 193.565L68.6873 195.092L74.7415 195.779H80.5503H86.359H94.1313L102.149 195.092L110.085 193.565L118.348 190.893L124.32 188.298L125.427 187.708C128.499 186.07 131.391 184.116 134.057 181.877L135.774 180.435C138.057 178.254 140.078 175.815 141.797 173.166L142.974 171.351L145.51 167.076L147.146 163.336C147.909 161.71 148.543 160.027 149.044 158.302L149.355 157.229L150.255 152.878L150.992 149.137L151.401 145.473V141.962V138.186C151.401 136.583 151.281 134.983 151.043 133.398L150.848 132.105C150.78 131.654 150.766 131.497 150.643 131.057C150.217 129.533 149.66 127.676 149.143 126.18L148.292 123.718L147.005 119.909C146.284 117.775 145.836 115.558 145.671 113.311L145.633 112.789C145.551 111.68 145.561 110.565 145.661 109.457C145.832 107.574 146.27 105.712 146.951 103.948C147.46 102.633 148.105 101.366 148.872 100.183L156.622 88.2185C158.102 85.9349 159.374 83.5235 160.423 81.013C161.496 78.4449 162.332 75.7838 162.92 73.0631L162.944 72.9552C163.646 69.7068 164 66.3928 164 63.0693V61.6565L163.509 53.7939L163.391 52.9751C163.088 50.8773 162.636 48.804 162.036 46.771L160.809 43.0305L159.337 39.6718L157.864 36.6947L155.9 33.6412L153.61 30.8168L150.583 27.687L147.392 24.7863L144.119 22.1145L140.11 19.3664L135.283 16.542L130.211 14.3282L125.384 12.4198L119.248 10.7405L112.376 9.29008L106.649 8.22137L101.822 7.53435L96.7493 7.22901L89.6316 7H83.4138L77.7686 7.22901Z" stroke="#FF0336" stroke-width="10"/>
<path d="M123.114 124.202C121.221 123.572 119.242 122.943 117.177 122.392C117.693 120.503 118.123 118.614 118.468 116.803C120.274 106.413 118.296 99.093 112.789 96.2594C111.154 95.3936 109.348 95 107.283 95C101.26 95 93.6028 99.093 85.8594 105.941C78.1161 99.093 70.4587 95 64.4361 95C62.3712 95 60.5644 95.3936 58.9297 96.2594C53.4233 99.1717 51.4445 106.492 53.2512 116.803C53.5954 118.614 54.0256 120.503 54.5418 122.392C52.4769 122.943 50.498 123.494 48.6052 124.202C37.8505 127.98 32 133.175 32 139C32 144.825 37.9366 150.02 48.6052 153.798C50.498 154.428 52.4769 155.057 54.5418 155.608C54.0256 157.497 53.5954 159.386 53.2512 161.197C51.4445 171.587 53.4233 178.907 58.9297 181.741C60.5644 182.606 62.3712 183 64.4361 183C70.5448 183 78.2021 178.907 85.8594 172.059C93.6028 178.907 101.26 183 107.283 183C109.348 183 111.154 182.606 112.789 181.741C118.296 178.828 120.274 171.508 118.468 161.197C118.123 159.386 117.693 157.497 117.177 155.608C119.242 155.057 121.221 154.506 123.114 153.798C133.868 150.02 139.719 144.825 139.719 139C139.719 133.175 133.868 127.98 123.114 124.202ZM110.38 100.195C113.908 102.084 115.112 107.909 113.65 116.174C113.391 117.826 112.961 119.558 112.445 121.369C107.971 120.424 103.239 119.794 98.2488 119.401C95.3235 115.623 92.3122 112.238 89.3009 109.168C95.6677 103.422 102.12 99.4866 107.369 99.4866C108.487 99.4866 109.52 99.7227 110.38 100.195ZM100.744 146.871C99.1952 149.39 97.3884 151.909 95.4956 154.428C92.3122 154.664 89.1289 154.742 85.8594 154.742C82.504 154.742 79.3206 154.664 76.2232 154.428C74.3304 151.909 72.6097 149.39 71.061 146.871C69.4263 144.274 67.8776 141.597 66.501 139C67.8776 136.403 69.4263 133.726 71.061 131.129C72.6097 128.61 74.4164 126.091 76.3093 123.572C79.4927 123.336 82.676 123.258 85.9455 123.258C89.3009 123.258 92.4843 123.336 95.5817 123.572C97.4745 126.091 99.1952 128.61 100.744 131.129C102.379 133.726 103.927 136.403 105.304 139C103.841 141.597 102.379 144.195 100.744 146.871ZM107.885 144.274C109.176 147.029 110.208 149.705 111.154 152.381C108.229 153.011 105.132 153.483 101.862 153.877C102.895 152.381 104.013 150.807 104.96 149.154C105.992 147.501 106.939 145.848 107.885 144.274ZM85.8594 165.605C83.7945 163.558 81.8157 161.354 79.9228 159.072C81.9017 159.15 83.8806 159.229 85.8594 159.229C87.8383 159.229 89.8171 159.15 91.796 159.072C89.9032 161.354 87.9243 163.558 85.8594 165.605ZM69.8565 153.798C66.587 153.404 63.4897 152.932 60.5644 152.302C61.5108 149.705 62.5433 146.95 63.8338 144.195C64.7803 145.769 65.7267 147.422 66.7591 148.996C67.7916 150.728 68.824 152.224 69.8565 153.798ZM63.8338 133.726C62.5433 130.971 61.5108 128.295 60.5644 125.619C63.4897 124.989 66.587 124.517 69.8565 124.123C68.824 125.619 67.7055 127.193 66.7591 128.846C65.7267 130.499 64.7803 132.152 63.8338 133.726ZM85.8594 112.395C87.9243 114.442 89.9032 116.646 91.796 118.928C89.8171 118.85 87.8383 118.771 85.8594 118.771C83.8806 118.771 81.9017 118.85 79.9228 118.928C81.8157 116.646 83.7945 114.442 85.8594 112.395ZM104.96 128.925L101.862 124.202C105.132 124.596 108.229 125.068 111.154 125.698C110.208 128.295 109.176 131.05 107.885 133.805C106.939 132.152 105.992 130.499 104.96 128.925ZM58.0693 116.174C56.6067 107.909 57.8112 102.084 61.3388 100.195C62.1991 99.7227 63.2316 99.4866 64.3501 99.4866C69.5123 99.4866 75.9651 103.343 82.4179 109.168C79.4066 112.159 76.3953 115.623 73.47 119.401C68.4799 119.794 63.7478 120.503 59.2739 121.369C58.7576 119.558 58.4135 117.826 58.0693 116.174ZM36.8181 139C36.8181 135.301 41.7222 131.365 50.326 128.453C52.0467 127.823 53.9395 127.272 55.8324 126.8C57.209 130.735 58.9297 134.907 60.9946 139.079C58.9297 143.25 57.1229 147.343 55.8324 151.279C43.9592 148.131 36.8181 143.408 36.8181 139ZM61.3388 177.805C57.8112 175.916 56.6067 170.091 58.0693 161.826C58.3275 160.174 58.7576 158.442 59.2739 156.631C63.7478 157.576 68.4799 158.206 73.47 158.599C76.3953 162.377 79.4066 165.762 82.4179 168.832C76.0512 174.578 69.5984 178.513 64.3501 178.513C63.2316 178.513 62.1991 178.277 61.3388 177.805ZM113.65 161.826C115.112 170.091 113.908 175.916 110.38 177.805C109.52 178.277 108.487 178.513 107.369 178.513C102.207 178.513 95.7537 174.657 89.3009 168.832C92.3122 165.841 95.3235 162.377 98.2488 158.599C103.239 158.206 107.971 157.497 112.445 156.631C112.961 158.442 113.305 160.174 113.65 161.826ZM121.393 149.547C119.672 150.177 117.779 150.728 115.886 151.2C114.51 147.265 112.789 143.093 110.724 138.921C112.789 134.75 114.596 130.657 115.886 126.721C127.76 129.869 134.901 134.592 134.901 139C134.901 142.699 129.911 146.635 121.393 149.547Z" fill="#FF0336"/>
<path d="M123.114 124.202C121.221 123.572 119.242 122.943 117.177 122.392C117.693 120.503 118.123 118.614 118.468 116.803C120.274 106.413 118.296 99.093 112.789 96.2594C111.154 95.3936 109.348 95 107.283 95C101.26 95 93.6028 99.093 85.8594 105.941C78.1161 99.093 70.4587 95 64.4361 95C62.3712 95 60.5644 95.3936 58.9297 96.2594C53.4233 99.1717 51.4445 106.492 53.2512 116.803C53.5954 118.614 54.0256 120.503 54.5418 122.392C52.4769 122.943 50.498 123.494 48.6052 124.202C37.8505 127.98 32 133.175 32 139C32 144.825 37.9366 150.02 48.6052 153.798C50.498 154.428 52.4769 155.057 54.5418 155.608C54.0256 157.497 53.5954 159.386 53.2512 161.197C51.4445 171.587 53.4233 178.907 58.9297 181.741C60.5644 182.606 62.3712 183 64.4361 183C70.5448 183 78.2021 178.907 85.8594 172.059C93.6028 178.907 101.26 183 107.283 183C109.348 183 111.154 182.606 112.789 181.741C118.296 178.828 120.274 171.508 118.468 161.197C118.123 159.386 117.693 157.497 117.177 155.608C119.242 155.057 121.221 154.506 123.114 153.798C133.868 150.02 139.719 144.825 139.719 139C139.719 133.175 133.868 127.98 123.114 124.202ZM110.38 100.195C113.908 102.084 115.112 107.909 113.65 116.174C113.391 117.826 112.961 119.558 112.445 121.369C107.971 120.424 103.239 119.794 98.2488 119.401C95.3235 115.623 92.3122 112.238 89.3009 109.168C95.6677 103.422 102.12 99.4866 107.369 99.4866C108.487 99.4866 109.52 99.7227 110.38 100.195ZM100.744 146.871C99.1952 149.39 97.3884 151.909 95.4956 154.428C92.3122 154.664 89.1289 154.742 85.8594 154.742C82.504 154.742 79.3206 154.664 76.2232 154.428C74.3304 151.909 72.6097 149.39 71.061 146.871C69.4263 144.274 67.8776 141.597 66.501 139C67.8776 136.403 69.4263 133.726 71.061 131.129C72.6097 128.61 74.4164 126.091 76.3093 123.572C79.4927 123.336 82.676 123.258 85.9455 123.258C89.3009 123.258 92.4843 123.336 95.5817 123.572C97.4745 126.091 99.1952 128.61 100.744 131.129C102.379 133.726 103.927 136.403 105.304 139C103.841 141.597 102.379 144.195 100.744 146.871ZM107.885 144.274C109.176 147.029 110.208 149.705 111.154 152.381C108.229 153.011 105.132 153.483 101.862 153.877C102.895 152.381 104.013 150.807 104.96 149.154C105.992 147.501 106.939 145.848 107.885 144.274ZM85.8594 165.605C83.7945 163.558 81.8157 161.354 79.9228 159.072C81.9017 159.15 83.8806 159.229 85.8594 159.229C87.8383 159.229 89.8171 159.15 91.796 159.072C89.9032 161.354 87.9243 163.558 85.8594 165.605ZM69.8565 153.798C66.587 153.404 63.4897 152.932 60.5644 152.302C61.5108 149.705 62.5433 146.95 63.8338 144.195C64.7803 145.769 65.7267 147.422 66.7591 148.996C67.7916 150.728 68.824 152.224 69.8565 153.798ZM63.8338 133.726C62.5433 130.971 61.5108 128.295 60.5644 125.619C63.4897 124.989 66.587 124.517 69.8565 124.123C68.824 125.619 67.7055 127.193 66.7591 128.846C65.7267 130.499 64.7803 132.152 63.8338 133.726ZM85.8594 112.395C87.9243 114.442 89.9032 116.646 91.796 118.928C89.8171 118.85 87.8383 118.771 85.8594 118.771C83.8806 118.771 81.9017 118.85 79.9228 118.928C81.8157 116.646 83.7945 114.442 85.8594 112.395ZM104.96 128.925L101.862 124.202C105.132 124.596 108.229 125.068 111.154 125.698C110.208 128.295 109.176 131.05 107.885 133.805C106.939 132.152 105.992 130.499 104.96 128.925ZM58.0693 116.174C56.6067 107.909 57.8112 102.084 61.3388 100.195C62.1991 99.7227 63.2316 99.4866 64.3501 99.4866C69.5123 99.4866 75.9651 103.343 82.4179 109.168C79.4066 112.159 76.3953 115.623 73.47 119.401C68.4799 119.794 63.7478 120.503 59.2739 121.369C58.7576 119.558 58.4135 117.826 58.0693 116.174ZM36.8181 139C36.8181 135.301 41.7222 131.365 50.326 128.453C52.0467 127.823 53.9395 127.272 55.8324 126.8C57.209 130.735 58.9297 134.907 60.9946 139.079C58.9297 143.25 57.1229 147.343 55.8324 151.279C43.9592 148.131 36.8181 143.408 36.8181 139ZM61.3388 177.805C57.8112 175.916 56.6067 170.091 58.0693 161.826C58.3275 160.174 58.7576 158.442 59.2739 156.631C63.7478 157.576 68.4799 158.206 73.47 158.599C76.3953 162.377 79.4066 165.762 82.4179 168.832C76.0512 174.578 69.5984 178.513 64.3501 178.513C63.2316 178.513 62.1991 178.277 61.3388 177.805ZM113.65 161.826C115.112 170.091 113.908 175.916 110.38 177.805C109.52 178.277 108.487 178.513 107.369 178.513C102.207 178.513 95.7537 174.657 89.3009 168.832C92.3122 165.841 95.3235 162.377 98.2488 158.599C103.239 158.206 107.971 157.497 112.445 156.631C112.961 158.442 113.305 160.174 113.65 161.826ZM121.393 149.547C119.672 150.177 117.779 150.728 115.886 151.2C114.51 147.265 112.789 143.093 110.724 138.921C112.789 134.75 114.596 130.657 115.886 126.721C127.76 129.869 134.901 134.592 134.901 139C134.901 142.699 129.911 146.635 121.393 149.547Z" fill="#FF0336"/>
<path d="M123.114 124.202C121.221 123.572 119.242 122.943 117.177 122.392C117.693 120.503 118.123 118.614 118.468 116.803C120.274 106.413 118.296 99.093 112.789 96.2594C111.154 95.3936 109.348 95 107.283 95C101.26 95 93.6028 99.093 85.8594 105.941C78.1161 99.093 70.4587 95 64.4361 95C62.3712 95 60.5644 95.3936 58.9297 96.2594C53.4233 99.1717 51.4445 106.492 53.2512 116.803C53.5954 118.614 54.0256 120.503 54.5418 122.392C52.4769 122.943 50.498 123.494 48.6052 124.202C37.8505 127.98 32 133.175 32 139C32 144.825 37.9366 150.02 48.6052 153.798C50.498 154.428 52.4769 155.057 54.5418 155.608C54.0256 157.497 53.5954 159.386 53.2512 161.197C51.4445 171.587 53.4233 178.907 58.9297 181.741C60.5644 182.606 62.3712 183 64.4361 183C70.5448 183 78.2021 178.907 85.8594 172.059C93.6028 178.907 101.26 183 107.283 183C109.348 183 111.154 182.606 112.789 181.741C118.296 178.828 120.274 171.508 118.468 161.197C118.123 159.386 117.693 157.497 117.177 155.608C119.242 155.057 121.221 154.506 123.114 153.798C133.868 150.02 139.719 144.825 139.719 139C139.719 133.175 133.868 127.98 123.114 124.202ZM110.38 100.195C113.908 102.084 115.112 107.909 113.65 116.174C113.391 117.826 112.961 119.558 112.445 121.369C107.971 120.424 103.239 119.794 98.2488 119.401C95.3235 115.623 92.3122 112.238 89.3009 109.168C95.6677 103.422 102.12 99.4866 107.369 99.4866C108.487 99.4866 109.52 99.7227 110.38 100.195ZM100.744 146.871C99.1952 149.39 97.3884 151.909 95.4956 154.428C92.3122 154.664 89.1289 154.742 85.8594 154.742C82.504 154.742 79.3206 154.664 76.2232 154.428C74.3304 151.909 72.6097 149.39 71.061 146.871C69.4263 144.274 67.8776 141.597 66.501 139C67.8776 136.403 69.4263 133.726 71.061 131.129C72.6097 128.61 74.4164 126.091 76.3093 123.572C79.4927 123.336 82.676 123.258 85.9455 123.258C89.3009 123.258 92.4843 123.336 95.5817 123.572C97.4745 126.091 99.1952 128.61 100.744 131.129C102.379 133.726 103.927 136.403 105.304 139C103.841 141.597 102.379 144.195 100.744 146.871ZM107.885 144.274C109.176 147.029 110.208 149.705 111.154 152.381C108.229 153.011 105.132 153.483 101.862 153.877C102.895 152.381 104.013 150.807 104.96 149.154C105.992 147.501 106.939 145.848 107.885 144.274ZM85.8594 165.605C83.7945 163.558 81.8157 161.354 79.9228 159.072C81.9017 159.15 83.8806 159.229 85.8594 159.229C87.8383 159.229 89.8171 159.15 91.796 159.072C89.9032 161.354 87.9243 163.558 85.8594 165.605ZM69.8565 153.798C66.587 153.404 63.4897 152.932 60.5644 152.302C61.5108 149.705 62.5433 146.95 63.8338 144.195C64.7803 145.769 65.7267 147.422 66.7591 148.996C67.7916 150.728 68.824 152.224 69.8565 153.798ZM63.8338 133.726C62.5433 130.971 61.5108 128.295 60.5644 125.619C63.4897 124.989 66.587 124.517 69.8565 124.123C68.824 125.619 67.7055 127.193 66.7591 128.846C65.7267 130.499 64.7803 132.152 63.8338 133.726ZM85.8594 112.395C87.9243 114.442 89.9032 116.646 91.796 118.928C89.8171 118.85 87.8383 118.771 85.8594 118.771C83.8806 118.771 81.9017 118.85 79.9228 118.928C81.8157 116.646 83.7945 114.442 85.8594 112.395ZM104.96 128.925L101.862 124.202C105.132 124.596 108.229 125.068 111.154 125.698C110.208 128.295 109.176 131.05 107.885 133.805C106.939 132.152 105.992 130.499 104.96 128.925ZM58.0693 116.174C56.6067 107.909 57.8112 102.084 61.3388 100.195C62.1991 99.7227 63.2316 99.4866 64.3501 99.4866C69.5123 99.4866 75.9651 103.343 82.4179 109.168C79.4066 112.159 76.3953 115.623 73.47 119.401C68.4799 119.794 63.7478 120.503 59.2739 121.369C58.7576 119.558 58.4135 117.826 58.0693 116.174ZM36.8181 139C36.8181 135.301 41.7222 131.365 50.326 128.453C52.0467 127.823 53.9395 127.272 55.8324 126.8C57.209 130.735 58.9297 134.907 60.9946 139.079C58.9297 143.25 57.1229 147.343 55.8324 151.279C43.9592 148.131 36.8181 143.408 36.8181 139ZM61.3388 177.805C57.8112 175.916 56.6067 170.091 58.0693 161.826C58.3275 160.174 58.7576 158.442 59.2739 156.631C63.7478 157.576 68.4799 158.206 73.47 158.599C76.3953 162.377 79.4066 165.762 82.4179 168.832C76.0512 174.578 69.5984 178.513 64.3501 178.513C63.2316 178.513 62.1991 178.277 61.3388 177.805ZM113.65 161.826C115.112 170.091 113.908 175.916 110.38 177.805C109.52 178.277 108.487 178.513 107.369 178.513C102.207 178.513 95.7537 174.657 89.3009 168.832C92.3122 165.841 95.3235 162.377 98.2488 158.599C103.239 158.206 107.971 157.497 112.445 156.631C112.961 158.442 113.305 160.174 113.65 161.826ZM121.393 149.547C119.672 150.177 117.779 150.728 115.886 151.2C114.51 147.265 112.789 143.093 110.724 138.921C112.789 134.75 114.596 130.657 115.886 126.721C127.76 129.869 134.901 134.592 134.901 139C134.901 142.699 129.911 146.635 121.393 149.547Z" fill="#FF0336"/>
<path d="M123.114 124.202C121.221 123.572 119.242 122.943 117.177 122.392C117.693 120.503 118.123 118.614 118.468 116.803C120.274 106.413 118.296 99.093 112.789 96.2594C111.154 95.3936 109.348 95 107.283 95C101.26 95 93.6028 99.093 85.8594 105.941C78.1161 99.093 70.4587 95 64.4361 95C62.3712 95 60.5644 95.3936 58.9297 96.2594C53.4233 99.1717 51.4445 106.492 53.2512 116.803C53.5954 118.614 54.0256 120.503 54.5418 122.392C52.4769 122.943 50.498 123.494 48.6052 124.202C37.8505 127.98 32 133.175 32 139C32 144.825 37.9366 150.02 48.6052 153.798C50.498 154.428 52.4769 155.057 54.5418 155.608C54.0256 157.497 53.5954 159.386 53.2512 161.197C51.4445 171.587 53.4233 178.907 58.9297 181.741C60.5644 182.606 62.3712 183 64.4361 183C70.5448 183 78.2021 178.907 85.8594 172.059C93.6028 178.907 101.26 183 107.283 183C109.348 183 111.154 182.606 112.789 181.741C118.296 178.828 120.274 171.508 118.468 161.197C118.123 159.386 117.693 157.497 117.177 155.608C119.242 155.057 121.221 154.506 123.114 153.798C133.868 150.02 139.719 144.825 139.719 139C139.719 133.175 133.868 127.98 123.114 124.202ZM110.38 100.195C113.908 102.084 115.112 107.909 113.65 116.174C113.391 117.826 112.961 119.558 112.445 121.369C107.971 120.424 103.239 119.794 98.2488 119.401C95.3235 115.623 92.3122 112.238 89.3009 109.168C95.6677 103.422 102.12 99.4866 107.369 99.4866C108.487 99.4866 109.52 99.7227 110.38 100.195ZM100.744 146.871C99.1952 149.39 97.3884 151.909 95.4956 154.428C92.3122 154.664 89.1289 154.742 85.8594 154.742C82.504 154.742 79.3206 154.664 76.2232 154.428C74.3304 151.909 72.6097 149.39 71.061 146.871C69.4263 144.274 67.8776 141.597 66.501 139C67.8776 136.403 69.4263 133.726 71.061 131.129C72.6097 128.61 74.4164 126.091 76.3093 123.572C79.4927 123.336 82.676 123.258 85.9455 123.258C89.3009 123.258 92.4843 123.336 95.5817 123.572C97.4745 126.091 99.1952 128.61 100.744 131.129C102.379 133.726 103.927 136.403 105.304 139C103.841 141.597 102.379 144.195 100.744 146.871ZM107.885 144.274C109.176 147.029 110.208 149.705 111.154 152.381C108.229 153.011 105.132 153.483 101.862 153.877C102.895 152.381 104.013 150.807 104.96 149.154C105.992 147.501 106.939 145.848 107.885 144.274ZM85.8594 165.605C83.7945 163.558 81.8157 161.354 79.9228 159.072C81.9017 159.15 83.8806 159.229 85.8594 159.229C87.8383 159.229 89.8171 159.15 91.796 159.072C89.9032 161.354 87.9243 163.558 85.8594 165.605ZM69.8565 153.798C66.587 153.404 63.4897 152.932 60.5644 152.302C61.5108 149.705 62.5433 146.95 63.8338 144.195C64.7803 145.769 65.7267 147.422 66.7591 148.996C67.7916 150.728 68.824 152.224 69.8565 153.798ZM63.8338 133.726C62.5433 130.971 61.5108 128.295 60.5644 125.619C63.4897 124.989 66.587 124.517 69.8565 124.123C68.824 125.619 67.7055 127.193 66.7591 128.846C65.7267 130.499 64.7803 132.152 63.8338 133.726ZM85.8594 112.395C87.9243 114.442 89.9032 116.646 91.796 118.928C89.8171 118.85 87.8383 118.771 85.8594 118.771C83.8806 118.771 81.9017 118.85 79.9228 118.928C81.8157 116.646 83.7945 114.442 85.8594 112.395ZM104.96 128.925L101.862 124.202C105.132 124.596 108.229 125.068 111.154 125.698C110.208 128.295 109.176 131.05 107.885 133.805C106.939 132.152 105.992 130.499 104.96 128.925ZM58.0693 116.174C56.6067 107.909 57.8112 102.084 61.3388 100.195C62.1991 99.7227 63.2316 99.4866 64.3501 99.4866C69.5123 99.4866 75.9651 103.343 82.4179 109.168C79.4066 112.159 76.3953 115.623 73.47 119.401C68.4799 119.794 63.7478 120.503 59.2739 121.369C58.7576 119.558 58.4135 117.826 58.0693 116.174ZM36.8181 139C36.8181 135.301 41.7222 131.365 50.326 128.453C52.0467 127.823 53.9395 127.272 55.8324 126.8C57.209 130.735 58.9297 134.907 60.9946 139.079C58.9297 143.25 57.1229 147.343 55.8324 151.279C43.9592 148.131 36.8181 143.408 36.8181 139ZM61.3388 177.805C57.8112 175.916 56.6067 170.091 58.0693 161.826C58.3275 160.174 58.7576 158.442 59.2739 156.631C63.7478 157.576 68.4799 158.206 73.47 158.599C76.3953 162.377 79.4066 165.762 82.4179 168.832C76.0512 174.578 69.5984 178.513 64.3501 178.513C63.2316 178.513 62.1991 178.277 61.3388 177.805ZM113.65 161.826C115.112 170.091 113.908 175.916 110.38 177.805C109.52 178.277 108.487 178.513 107.369 178.513C102.207 178.513 95.7537 174.657 89.3009 168.832C92.3122 165.841 95.3235 162.377 98.2488 158.599C103.239 158.206 107.971 157.497 112.445 156.631C112.961 158.442 113.305 160.174 113.65 161.826ZM121.393 149.547C119.672 150.177 117.779 150.728 115.886 151.2C114.51 147.265 112.789 143.093 110.724 138.921C112.789 134.75 114.596 130.657 115.886 126.721C127.76 129.869 134.901 134.592 134.901 139C134.901 142.699 129.911 146.635 121.393 149.547Z" fill="#FF0336"/>
<path d="M123.114 124.202C121.221 123.572 119.242 122.943 117.177 122.392C117.693 120.503 118.123 118.614 118.468 116.803C120.274 106.413 118.296 99.093 112.789 96.2594C111.154 95.3936 109.348 95 107.283 95C101.26 95 93.6028 99.093 85.8594 105.941C78.1161 99.093 70.4587 95 64.4361 95C62.3712 95 60.5644 95.3936 58.9297 96.2594C53.4233 99.1717 51.4445 106.492 53.2512 116.803C53.5954 118.614 54.0256 120.503 54.5418 122.392C52.4769 122.943 50.498 123.494 48.6052 124.202C37.8505 127.98 32 133.175 32 139C32 144.825 37.9366 150.02 48.6052 153.798C50.498 154.428 52.4769 155.057 54.5418 155.608C54.0256 157.497 53.5954 159.386 53.2512 161.197C51.4445 171.587 53.4233 178.907 58.9297 181.741C60.5644 182.606 62.3712 183 64.4361 183C70.5448 183 78.2021 178.907 85.8594 172.059C93.6028 178.907 101.26 183 107.283 183C109.348 183 111.154 182.606 112.789 181.741C118.296 178.828 120.274 171.508 118.468 161.197C118.123 159.386 117.693 157.497 117.177 155.608C119.242 155.057 121.221 154.506 123.114 153.798C133.868 150.02 139.719 144.825 139.719 139C139.719 133.175 133.868 127.98 123.114 124.202ZM110.38 100.195C113.908 102.084 115.112 107.909 113.65 116.174C113.391 117.826 112.961 119.558 112.445 121.369C107.971 120.424 103.239 119.794 98.2488 119.401C95.3235 115.623 92.3122 112.238 89.3009 109.168C95.6677 103.422 102.12 99.4866 107.369 99.4866C108.487 99.4866 109.52 99.7227 110.38 100.195ZM100.744 146.871C99.1952 149.39 97.3884 151.909 95.4956 154.428C92.3122 154.664 89.1289 154.742 85.8594 154.742C82.504 154.742 79.3206 154.664 76.2232 154.428C74.3304 151.909 72.6097 149.39 71.061 146.871C69.4263 144.274 67.8776 141.597 66.501 139C67.8776 136.403 69.4263 133.726 71.061 131.129C72.6097 128.61 74.4164 126.091 76.3093 123.572C79.4927 123.336 82.676 123.258 85.9455 123.258C89.3009 123.258 92.4843 123.336 95.5817 123.572C97.4745 126.091 99.1952 128.61 100.744 131.129C102.379 133.726 103.927 136.403 105.304 139C103.841 141.597 102.379 144.195 100.744 146.871ZM107.885 144.274C109.176 147.029 110.208 149.705 111.154 152.381C108.229 153.011 105.132 153.483 101.862 153.877C102.895 152.381 104.013 150.807 104.96 149.154C105.992 147.501 106.939 145.848 107.885 144.274ZM85.8594 165.605C83.7945 163.558 81.8157 161.354 79.9228 159.072C81.9017 159.15 83.8806 159.229 85.8594 159.229C87.8383 159.229 89.8171 159.15 91.796 159.072C89.9032 161.354 87.9243 163.558 85.8594 165.605ZM69.8565 153.798C66.587 153.404 63.4897 152.932 60.5644 152.302C61.5108 149.705 62.5433 146.95 63.8338 144.195C64.7803 145.769 65.7267 147.422 66.7591 148.996C67.7916 150.728 68.824 152.224 69.8565 153.798ZM63.8338 133.726C62.5433 130.971 61.5108 128.295 60.5644 125.619C63.4897 124.989 66.587 124.517 69.8565 124.123C68.824 125.619 67.7055 127.193 66.7591 128.846C65.7267 130.499 64.7803 132.152 63.8338 133.726ZM85.8594 112.395C87.9243 114.442 89.9032 116.646 91.796 118.928C89.8171 118.85 87.8383 118.771 85.8594 118.771C83.8806 118.771 81.9017 118.85 79.9228 118.928C81.8157 116.646 83.7945 114.442 85.8594 112.395ZM104.96 128.925L101.862 124.202C105.132 124.596 108.229 125.068 111.154 125.698C110.208 128.295 109.176 131.05 107.885 133.805C106.939 132.152 105.992 130.499 104.96 128.925ZM58.0693 116.174C56.6067 107.909 57.8112 102.084 61.3388 100.195C62.1991 99.7227 63.2316 99.4866 64.3501 99.4866C69.5123 99.4866 75.9651 103.343 82.4179 109.168C79.4066 112.159 76.3953 115.623 73.47 119.401C68.4799 119.794 63.7478 120.503 59.2739 121.369C58.7576 119.558 58.4135 117.826 58.0693 116.174ZM36.8181 139C36.8181 135.301 41.7222 131.365 50.326 128.453C52.0467 127.823 53.9395 127.272 55.8324 126.8C57.209 130.735 58.9297 134.907 60.9946 139.079C58.9297 143.25 57.1229 147.343 55.8324 151.279C43.9592 148.131 36.8181 143.408 36.8181 139ZM61.3388 177.805C57.8112 175.916 56.6067 170.091 58.0693 161.826C58.3275 160.174 58.7576 158.442 59.2739 156.631C63.7478 157.576 68.4799 158.206 73.47 158.599C76.3953 162.377 79.4066 165.762 82.4179 168.832C76.0512 174.578 69.5984 178.513 64.3501 178.513C63.2316 178.513 62.1991 178.277 61.3388 177.805ZM113.65 161.826C115.112 170.091 113.908 175.916 110.38 177.805C109.52 178.277 108.487 178.513 107.369 178.513C102.207 178.513 95.7537 174.657 89.3009 168.832C92.3122 165.841 95.3235 162.377 98.2488 158.599C103.239 158.206 107.971 157.497 112.445 156.631C112.961 158.442 113.305 160.174 113.65 161.826ZM121.393 149.547C119.672 150.177 117.779 150.728 115.886 151.2C114.51 147.265 112.789 143.093 110.724 138.921C112.789 134.75 114.596 130.657 115.886 126.721C127.76 129.869 134.901 134.592 134.901 139C134.901 142.699 129.911 146.635 121.393 149.547Z" stroke="black" stroke-width="3"/>
<path d="M100.022 35.9314C86.7477 35.9679 82.0182 36.0226 70.7327 36.0841C64.4736 36.4646 62.8677 36.6826 58.7061 37.3055C55.5012 37.6225 53.6556 38.0254 50.3611 38.7558C47.3264 39.6385 45.8286 40.3138 43.5706 41.8856C40.9999 43.6685 40.1053 45.0827 38.4164 47.5345L37.271 51.8093V59.3665L38.4164 65.7787L40.6253 72.7253C40.6253 72.7253 43.4888 79.3665 43.5706 79.5955C43.6524 79.8245 47.8249 84.939 47.8249 84.939C49.5073 86.5122 50.6755 86.9717 53.061 87.2291L56.6608 86.6184L62.3059 84.939L67.3783 82.9543L73.4325 80.8932L74.1352 80.6906C76.6627 79.9617 79.2437 79.4334 81.8542 79.1105L84.7228 78.7558H88.6498L92.9041 79.2138L97.5675 80.4352L102.395 82.4963L107.631 84.939L115.076 88.1451L117.53 88.4505L119.739 88.1451L121.621 87.2291L126.039 82.9543L130.129 75.7024L132.502 68.2215L133.647 62.878L133.974 58.5268L133.647 53.8703L133.156 50.5116C132.511 48.7993 132.072 48.0574 131.275 46.7711C131.275 46.7711 130.528 44.7111 127.511 42.8781C124.495 41.0451 123.191 40.454 119.739 39.1293C116.267 38.053 114.361 37.3319 110.739 36.6865C106.606 36.1643 104.228 36.1345 100.022 35.9314Z" stroke="black" stroke-width="13"/>
<path d="M100.022 35.9314C86.7477 35.9679 82.0182 36.0226 70.7327 36.0841C64.4736 36.4646 62.8677 36.6826 58.7061 37.3055C55.5012 37.6225 53.6556 38.0254 50.3611 38.7558C47.3264 39.6385 45.8286 40.3138 43.5706 41.8856C40.9999 43.6685 40.1053 45.0827 38.4164 47.5345L37.271 51.8093V59.3665L38.4164 65.7787L40.6253 72.7253C40.6253 72.7253 43.4888 79.3665 43.5706 79.5955C43.6524 79.8245 47.8249 84.939 47.8249 84.939C49.5073 86.5122 50.6755 86.9717 53.061 87.2291L56.6608 86.6184L62.3059 84.939L67.3783 82.9543L73.4325 80.8932L74.1352 80.6906C76.6627 79.9617 79.2437 79.4334 81.8542 79.1105L84.7228 78.7558H88.6498L92.9041 79.2138L97.5675 80.4352L102.395 82.4963L107.631 84.939L115.076 88.1451L117.53 88.4505L119.739 88.1451L121.621 87.2291L126.039 82.9543L130.129 75.7024L132.502 68.2215L133.647 62.878L133.974 58.5268L133.647 53.8703L133.156 50.5116C132.511 48.7993 132.072 48.0574 131.275 46.7711C131.275 46.7711 130.528 44.7111 127.511 42.8781C124.495 41.0451 123.191 40.454 119.739 39.1293C116.267 38.053 114.361 37.3319 110.739 36.6865C106.606 36.1643 104.228 36.1345 100.022 35.9314Z" stroke="#FF0336" stroke-width="10"/>
<circle cx="96" cy="176" r="4.5" fill="#FF0336" stroke="black"/>
<circle cx="117" cy="108" r="4.5" fill="#FF0336" stroke="black"/>
<circle cx="49" cy="126" r="4.5" fill="#FF0336" stroke="black"/>
</svg>
